# xmcd
#
# Track frame offsets:
#	150
#	900
#	1650
#
# Disc length: 823 seconds
#
# Revision: 1
# Processed by: cddbd v1.5.1PL0 Copyright (c) Steve Scherf et al.
# Submitted via: CDex 1.50Beta5
#
DISCID=09033503
DTITLE=175 - 175r
DYEAR=1900
DGENRE=Pop
TTITLE0=手紙
TTITLE1=Untitled
TTITLE2=Untitled
EXTD=
EXTT0=
EXTT1=
EXTT2=
PLAYORDER=
